# xmcd CD database file
#
# Track frame offsets:
#	182
#	14632
#	34960
#	46867
#	65780
#	79725
#	91790
#	113037
#	125867
#	149345
#	162852
#	184167
#	194755
#	218575
#
# Disc length: 3123 seconds
#
# Revision: 1
# Processed by: cddbd v1.5.2PL0 Copyright (c) Steve Scherf et al.
# Submitted via: CDex 1.97
#
DISCID=cd0c310e
DTITLE=Frank Frost - Midnight Prowler
DYEAR=1990
DGENRE=Blues
TTITLE0=Gonna Put Her Down
TTITLE1=Ernest's Groove
TTITLE2=Undertaker
TTITLE3=Scratch My Back
TTITLE4=Midnight Prowler
TTITLE5=Just Like A Rabbit
TTITLE6=Quarter To Twelve
TTITLE7=My Back Scratcher
TTITLE8=Cummins Prison Farm
TTITLE9=Unseen Eye
TTITLE10=Mean Black Spider
TTITLE11=Who Told You
TTITLE12=Mustang Sally
TTITLE13=I Wanna Get Close
EXTD=YEAR: 1990
EXTT0=
EXTT1=
EXTT2=
EXTT3=
EXTT4=
EXTT5=
EXTT6=
EXTT7=
EXTT8=
EXTT9=
EXTT10=
EXTT11=
EXTT12=
EXTT13=
PLAYORDER=
